<svg width="34" height="34" viewBox="0 0 34 34" fill="none" xmlns="http://www.w3.org/2000/svg">
<rect width="34" height="34" rx="8" fill="#E7F3FA"/>
<path fill-rule="evenodd" clip-rule="evenodd" d="M9 17C9 16.7348 9.10536 16.4804 9.29289 16.2929C9.48043 16.1054 9.73478 16 10 16H20.308C20.5732 16 20.8276 16.1054 21.0151 16.2929C21.2026 16.4804 21.308 16.7348 21.308 17C21.308 17.2652 21.2026 17.5196 21.0151 17.7071C20.8276 17.8946 20.5732 18 20.308 18H10C9.73478 18 9.48043 17.8946 9.29289 17.7071C9.10536 17.5196 9 17.2652 9 17ZM9 13C9 12.7348 9.10536 12.4804 9.29289 12.2929C9.48043 12.1054 9.73478 12 10 12H24C24.2652 12 24.5196 12.1054 24.7071 12.2929C24.8946 12.4804 25 12.7348 25 13C25 13.2652 24.8946 13.5196 24.7071 13.7071C24.5196 13.8946 24.2652 14 24 14H10C9.73478 14 9.48043 13.8946 9.29289 13.7071C9.10536 13.5196 9 13.2652 9 13ZM9 21C9 20.7348 9.10536 20.4804 9.29289 20.2929C9.48043 20.1054 9.73478 20 10 20H24C24.2652 20 24.5196 20.1054 24.7071 20.2929C24.8946 20.4804 25 20.7348 25 21C25 21.2652 24.8946 21.5196 24.7071 21.7071C24.5196 21.8946 24.2652 22 24 22H10C9.73478 22 9.48043 21.8946 9.29289 21.7071C9.10536 21.5196 9 21.2652 9 21Z" fill="url(#paint0_linear_12_48)"/>
<defs>
<linearGradient id="paint0_linear_12_48" x1="26.3258" y1="12" x2="9.10713" y2="21.6628" gradientUnits="userSpaceOnUse">
<stop stop-color="#08BADD"/>
<stop offset="1" stop-color="#1669C7"/>
</linearGradient>
</defs>
</svg>
