<svg width="34" height="34" viewBox="0 0 34 34" fill="none" xmlns="http://www.w3.org/2000/svg">
<rect width="34" height="34" rx="8" fill="#E7F3FA"/>
<path fill-rule="evenodd" clip-rule="evenodd" d="M11.3431 11.5C11.5306 11.3125 11.785 11.2071 12.0502 11.2071C12.3154 11.2071 12.5697 11.3125 12.7573 11.5L22.6568 21.3995C22.8443 21.587 22.9497 21.8414 22.9497 22.1066C22.9497 22.3718 22.8443 22.6262 22.6568 22.8137C22.4692 23.0013 22.2149 23.1066 21.9497 23.1066C21.6844 23.1066 21.4301 23.0013 21.2426 22.8137L11.3431 12.9142C11.1555 12.7267 11.0502 12.4723 11.0502 12.2071C11.0502 11.9419 11.1555 11.6876 11.3431 11.5Z" fill="url(#paint0_linear_12_63)"/>
<path fill-rule="evenodd" clip-rule="evenodd" d="M11.3432 22.5C11.1557 22.3125 11.0503 22.0581 11.0503 21.7929C11.0503 21.5277 11.1557 21.2733 11.3432 21.0858L21.2427 11.1863C21.4302 10.9988 21.6846 10.8934 21.9498 10.8934C22.215 10.8934 22.4694 10.9988 22.6569 11.1863C22.8445 11.3738 22.9498 11.6282 22.9498 11.8934C22.9498 12.1586 22.8445 12.413 22.6569 12.6005L12.7574 22.5C12.5699 22.6876 12.3155 22.7929 12.0503 22.7929C11.7851 22.7929 11.5308 22.6876 11.3432 22.5Z" fill="url(#paint1_linear_12_63)"/>
<defs>
<linearGradient id="paint0_linear_12_63" x1="29.9582" y1="17.3873" x2="10.9502" y2="12.0444" gradientUnits="userSpaceOnUse">
<stop stop-color="#08BADD"/>
<stop offset="1" stop-color="#1669C7"/>
</linearGradient>
<linearGradient id="paint1_linear_12_63" x1="17.2305" y1="3.88485" x2="11.8876" y2="22.8929" gradientUnits="userSpaceOnUse">
<stop stop-color="#08BADD"/>
<stop offset="1" stop-color="#1669C7"/>
</linearGradient>
</defs>
</svg>
