<svg width="145" height="47" viewBox="0 0 145 47" fill="none" xmlns="http://www.w3.org/2000/svg">
<path d="M18.1261 23.6409L16.41 18.0357H7.82967L6.1136 23.6409H0.734375L9.05073 0H15.156L23.5053 23.6409H18.1261ZM13.5059 8.3749C13.3959 8.00121 13.2529 7.52861 13.0769 6.9571C12.9009 6.38558 12.7249 5.80308 12.5489 5.20958C12.3729 4.61608 12.2299 4.09952 12.1199 3.6599C12.0099 4.09952 11.8558 4.64906 11.6578 5.3085C11.4818 5.94596 11.3058 6.56144 11.1298 7.15493C10.9758 7.72645 10.8548 8.1331 10.7668 8.3749L9.08373 13.8483H15.222L13.5059 8.3749Z" fill="#110024"/>
<path d="M46.7855 23.6409H29.2618V20.4097L40.5482 4.22042H29.5588V0.0989148H46.4885V3.33017L35.202 19.5194H46.7855V23.6409Z" fill="#110024"/>
<path d="M69.9228 23.6409L68.2067 18.0357H59.6264L57.9103 23.6409H52.5311L60.8474 0H66.9527L75.302 23.6409H69.9228ZM65.3026 8.3749C65.1926 8.00121 65.0496 7.52861 64.8736 6.9571C64.6976 6.38558 64.5216 5.80308 64.3456 5.20958C64.1696 4.61608 64.0266 4.09952 63.9166 3.6599C63.8066 4.09952 63.6526 4.64906 63.4546 5.3085C63.2785 5.94596 63.1025 6.56144 62.9265 7.15493C62.7725 7.72645 62.6515 8.1331 62.5635 8.3749L60.8804 13.8483H67.0187L65.3026 8.3749Z" fill="#110024"/>
<path d="M92.0479 23.6409H81.3225V20.8054L84.1936 19.4865V4.25339L81.3225 2.93451V0.0989148H92.0479V2.93451L89.1768 4.25339V19.4865L92.0479 20.8054V23.6409Z" fill="#110024"/>
<path d="M116.359 23.6409H98.8354V20.4097L110.122 4.22042H99.1324V0.0989148H116.062V3.33017L104.776 19.5194H116.359V23.6409Z" fill="#110024"/>
<path d="M139.496 23.6409L137.78 18.0357H129.2L127.484 23.6409H122.105L130.421 0H136.526L144.876 23.6409H139.496ZM134.876 8.3749C134.766 8.00121 134.623 7.52861 134.447 6.9571C134.271 6.38558 134.095 5.80308 133.919 5.20958C133.743 4.61608 133.6 4.09952 133.49 3.6599C133.38 4.09952 133.226 4.64906 133.028 5.3085C132.852 5.94596 132.676 6.56144 132.5 7.15493C132.346 7.72645 132.225 8.1331 132.137 8.3749L130.454 13.8483H136.592L134.876 8.3749Z" fill="#110024"/>
<path d="M10.9645 40.4421C10.9645 41.8448 10.7308 43.0196 10.2634 43.9665C9.79597 44.9133 9.10652 45.6264 8.19503 46.1057C7.28355 46.5849 6.16172 46.8246 4.82955 46.8246H1.90228V34.305H5.19765C6.43633 34.305 7.4822 34.5388 8.33526 35.0064C9.2 35.474 9.8544 36.1637 10.2985 37.0755C10.7425 37.9873 10.9645 39.1095 10.9645 40.4421ZM9.8953 40.4771C9.8953 39.2965 9.71417 38.3204 9.35192 37.5489C9.00134 36.7657 8.4638 36.1812 7.73929 35.7955C7.01478 35.398 6.10329 35.1993 5.00484 35.1993H2.91894V45.9303H4.77696C6.49476 45.9303 7.77435 45.4803 8.61572 44.5802C9.46877 43.6684 9.8953 42.3007 9.8953 40.4771Z" fill="#110024"/>
<path d="M22.0412 46.8246H15.5732V34.305H22.0412V35.2168H16.5898V39.8108H21.7432V40.7051H16.5898V45.9128H22.0412V46.8246Z" fill="#110024"/>
<path d="M33.1286 43.5807C33.1286 44.3288 32.9533 44.9601 32.6027 45.4744C32.2521 45.9771 31.7672 46.357 31.1478 46.6142C30.5402 46.8713 29.8449 46.9999 29.0619 46.9999C28.5828 46.9999 28.1446 46.9707 27.7473 46.9122C27.3617 46.8655 27.0111 46.807 26.6956 46.7369C26.3918 46.6551 26.1055 46.5615 25.8367 46.4563V45.4394C26.2691 45.6147 26.7599 45.7725 27.3091 45.9128C27.8583 46.0414 28.4543 46.1057 29.097 46.1057C29.7047 46.1057 30.2305 46.0121 30.6746 45.8251C31.1303 45.6381 31.4809 45.3634 31.7263 45.001C31.9834 44.6386 32.1119 44.1827 32.1119 43.6333C32.1119 43.1307 32.0009 42.7215 31.7789 42.4059C31.5685 42.0903 31.2413 41.8156 30.7973 41.5818C30.3649 41.3363 29.804 41.0908 29.1145 40.8454C28.6354 40.6583 28.203 40.4654 27.8174 40.2667C27.4318 40.068 27.0987 39.8342 26.8183 39.5653C26.5495 39.2965 26.3392 38.9809 26.1873 38.6185C26.047 38.2561 25.9769 37.8178 25.9769 37.3034C25.9769 36.6137 26.1405 36.0351 26.4677 35.5675C26.7949 35.0999 27.239 34.7434 27.7999 34.4979C28.3725 34.2524 29.021 34.1297 29.7456 34.1297C30.3298 34.1297 30.8732 34.1882 31.3757 34.305C31.8899 34.4103 32.3807 34.5739 32.8481 34.796L32.5151 35.6727C32.0476 35.4623 31.5802 35.3045 31.1128 35.1993C30.6454 35.0941 30.1779 35.0415 29.7105 35.0415C29.173 35.0415 28.6997 35.1292 28.2907 35.3045C27.8934 35.4682 27.5779 35.7195 27.3441 36.0585C27.1221 36.3858 27.0111 36.7949 27.0111 37.2859C27.0111 37.8236 27.1221 38.2561 27.3441 38.5834C27.5662 38.9107 27.8817 39.1854 28.2907 39.4075C28.7114 39.6179 29.2139 39.8342 29.7981 40.0563C30.4993 40.3018 31.0953 40.5706 31.5861 40.8629C32.0885 41.1551 32.4683 41.5117 32.7254 41.9325C32.9942 42.3533 33.1286 42.9027 33.1286 43.5807Z" fill="#110024"/>
<path d="M40.2223 46.8246H36.6991V46.1933L37.9436 46.0004V35.1467L36.6991 34.9363V34.305H40.2223V34.9363L38.9602 35.1467V46.0004L40.2223 46.1933V46.8246Z" fill="#110024"/>
<path d="M49.3358 40.4596H53.6127V46.2635C53.0284 46.5089 52.4149 46.696 51.7722 46.8246C51.1412 46.9415 50.4576 46.9999 49.7214 46.9999C48.471 46.9999 47.4193 46.7486 46.5663 46.2459C45.7249 45.7316 45.0822 44.9951 44.6381 44.0366C44.2057 43.0781 43.9896 41.9266 43.9896 40.5823C43.9896 39.3082 44.2291 38.1918 44.7082 37.2333C45.1873 36.263 45.8768 35.5032 46.7766 34.9538C47.6764 34.3927 48.7573 34.1122 50.0194 34.1122C50.6621 34.1122 51.2698 34.1765 51.8424 34.305C52.415 34.4219 52.9583 34.609 53.4725 34.8661L53.0869 35.7604C52.5961 35.5149 52.0877 35.3337 51.5619 35.2168C51.0477 35.0882 50.516 35.024 49.9668 35.024C48.9501 35.024 48.0737 35.2577 47.3375 35.7253C46.6013 36.1929 46.0346 36.8417 45.6372 37.6716C45.2399 38.5016 45.0413 39.4718 45.0413 40.5823C45.0413 41.7864 45.2224 42.7975 45.5847 43.6158C45.9586 44.434 46.502 45.0536 47.2148 45.4744C47.9393 45.8952 48.8333 46.1057 49.8967 46.1057C50.2823 46.1057 50.6329 46.0881 50.9484 46.0531C51.2756 46.0063 51.5736 45.9478 51.8424 45.8777C52.1228 45.8076 52.3799 45.7316 52.6136 45.6498V41.3714H49.3358V40.4596Z" fill="#110024"/>
<path d="M67.2445 46.8246H66.1402L59.3917 35.8831H59.3391C59.3391 36.1169 59.3449 36.3566 59.3566 36.602C59.3683 36.8358 59.3741 37.0813 59.3741 37.3385C59.3858 37.5957 59.3917 37.8587 59.3917 38.1275C59.4034 38.3847 59.4092 38.6477 59.4092 38.9166V46.8246H58.4627V34.305H59.567L66.2979 45.2114H66.3505C66.3388 45.0361 66.3271 44.8315 66.3155 44.5977C66.3155 44.3522 66.3096 44.095 66.2979 43.8262C66.2979 43.5573 66.2921 43.2885 66.2804 43.0196C66.2804 42.7508 66.2804 42.4936 66.2804 42.2481V34.305H67.2445V46.8246Z" fill="#110024"/>
<path d="M85.2041 43.5807C85.2041 44.3288 85.0288 44.9601 84.6783 45.4744C84.3277 45.9771 83.8427 46.357 83.2234 46.6142C82.6157 46.8713 81.9204 46.9999 81.1375 46.9999C80.6584 46.9999 80.2202 46.9707 79.8228 46.9122C79.4372 46.8655 79.0866 46.807 78.7711 46.7369C78.4673 46.6551 78.181 46.5615 77.9122 46.4563V45.4394C78.3446 45.6147 78.8354 45.7725 79.3846 45.9128C79.9339 46.0414 80.5298 46.1057 81.1725 46.1057C81.7802 46.1057 82.306 46.0121 82.7501 45.8251C83.2058 45.6381 83.5564 45.3634 83.8018 45.001C84.0589 44.6386 84.1874 44.1827 84.1874 43.6333C84.1874 43.1307 84.0764 42.7215 83.8544 42.4059C83.6441 42.0903 83.3169 41.8156 82.8728 41.5818C82.4404 41.3363 81.8795 41.0908 81.1901 40.8454C80.711 40.6583 80.2786 40.4654 79.893 40.2667C79.5073 40.068 79.1743 39.8342 78.8938 39.5653C78.6251 39.2965 78.4147 38.9809 78.2628 38.6185C78.1226 38.2561 78.0525 37.8178 78.0525 37.3034C78.0525 36.6137 78.2161 36.0351 78.5433 35.5675C78.8705 35.0999 79.3145 34.7434 79.8754 34.4979C80.448 34.2524 81.0966 34.1297 81.8211 34.1297C82.4054 34.1297 82.9488 34.1882 83.4512 34.305C83.9654 34.4103 84.4562 34.5739 84.9236 34.796L84.5906 35.6727C84.1232 35.4623 83.6558 35.3045 83.1883 35.1993C82.7209 35.0941 82.2535 35.0415 81.786 35.0415C81.2485 35.0415 80.7752 35.1292 80.3662 35.3045C79.9689 35.4682 79.6534 35.7195 79.4197 36.0585C79.1977 36.3858 79.0866 36.7949 79.0866 37.2859C79.0866 37.8236 79.1977 38.2561 79.4197 38.5834C79.6417 38.9107 79.9572 39.1854 80.3662 39.4075C80.7869 39.6179 81.2894 39.8342 81.8737 40.0563C82.5748 40.3018 83.1708 40.5706 83.6616 40.8629C84.1641 41.1551 84.5439 41.5117 84.8009 41.9325C85.0697 42.3533 85.2041 42.9027 85.2041 43.5807Z" fill="#110024"/>
<path d="M92.8412 46.8246H91.8246V35.2168H88.0559V34.305H96.5923V35.2168H92.8412V46.8246Z" fill="#110024"/>
<path d="M109.038 42.4059C109.038 43.3645 108.862 44.1886 108.512 44.8783C108.161 45.5562 107.653 46.0823 106.987 46.4563C106.321 46.8187 105.509 46.9999 104.55 46.9999C103.136 46.9999 102.05 46.5966 101.29 45.79C100.542 44.9718 100.168 43.832 100.168 42.3708V34.305H101.167V42.3708C101.167 43.5866 101.459 44.5159 102.044 45.1588C102.64 45.79 103.493 46.1057 104.603 46.1057C105.351 46.1057 105.976 45.9654 106.478 45.6848C106.981 45.3926 107.361 44.9776 107.618 44.4399C107.887 43.8905 108.021 43.2359 108.021 42.476V34.305H109.038V42.4059Z" fill="#110024"/>
<path d="M123.178 40.4421C123.178 41.8448 122.944 43.0196 122.477 43.9665C122.009 44.9133 121.32 45.6264 120.409 46.1057C119.497 46.5849 118.375 46.8246 117.043 46.8246H114.116V34.305H117.411C118.65 34.305 119.696 34.5388 120.549 35.0064C121.414 35.474 122.068 36.1637 122.512 37.0755C122.956 37.9873 123.178 39.1095 123.178 40.4421ZM122.109 40.4771C122.109 39.2965 121.928 38.3204 121.565 37.5489C121.215 36.7657 120.677 36.1812 119.953 35.7955C119.228 35.398 118.317 35.1993 117.218 35.1993H115.132V45.9303H116.99C118.708 45.9303 119.988 45.4803 120.829 44.5802C121.682 43.6684 122.109 42.3007 122.109 40.4771Z" fill="#110024"/>
<path d="M130.486 46.8246H126.963V46.1933L128.207 46.0004V35.1467L126.963 34.9363V34.305H130.486V34.9363L129.224 35.1467V46.0004L130.486 46.1933V46.8246Z" fill="#110024"/>
<path d="M144.876 40.5473C144.876 41.5058 144.765 42.3767 144.543 43.1599C144.321 43.9431 143.988 44.6269 143.543 45.2114C143.099 45.7842 142.544 46.2284 141.878 46.544C141.212 46.8479 140.441 46.9999 139.564 46.9999C138.676 46.9999 137.899 46.8421 137.233 46.5265C136.567 46.2109 136.012 45.7667 135.568 45.1939C135.124 44.6211 134.791 43.9431 134.569 43.1599C134.359 42.365 134.253 41.4883 134.253 40.5297C134.253 39.2556 134.452 38.1392 134.849 37.1807C135.258 36.2221 135.86 35.474 136.655 34.9363C137.449 34.3869 138.437 34.1122 139.617 34.1122C140.751 34.1122 141.709 34.3752 142.492 34.9012C143.275 35.4156 143.865 36.152 144.262 37.1105C144.671 38.0691 144.876 39.2147 144.876 40.5473ZM135.323 40.5297C135.323 41.6519 135.475 42.628 135.778 43.458C136.082 44.2879 136.55 44.9367 137.181 45.4043C137.812 45.8719 138.612 46.1057 139.582 46.1057C140.552 46.1057 141.347 45.8777 141.966 45.4218C142.597 44.9542 143.059 44.3055 143.351 43.4755C143.655 42.6455 143.806 41.6695 143.806 40.5473C143.806 38.8055 143.456 37.4495 142.755 36.4793C142.054 35.5091 141.008 35.024 139.617 35.024C138.647 35.024 137.841 35.2519 137.198 35.7078C136.567 36.1637 136.094 36.8066 135.778 37.6366C135.475 38.4665 135.323 39.4309 135.323 40.5297Z" fill="#110024"/>
</svg>
